<?xml version="1.0" encoding="iso-8859-1"?>
<!-- Generator: Adobe Illustrator 17.1.0, SVG Export Plug-In . SVG Version: 6.00 Build 0)  -->
<!DOCTYPE svg PUBLIC "-//W3C//DTD SVG 1.1//EN" "http://www.w3.org/Graphics/SVG/1.1/DTD/svg11.dtd">
<svg version="1.1" id="Capa_1" xmlns="http://www.w3.org/2000/svg" xmlns:xlink="http://www.w3.org/1999/xlink" x="0px" y="0px"
	 viewBox="0 0 512.033 512.033" style="enable-background:new 0 0 512.033 512.033;" xml:space="preserve">
<g>
	<path d="M192,256.017c0-8.823-7.178-16-16-16s-16,7.177-16,16s7.178,16,16,16S192,264.839,192,256.017z"/>
	<path d="M336,240.017c-8.822,0-16,7.177-16,16s7.178,16,16,16s16-7.177,16-16S344.822,240.017,336,240.017z"/>
	<path d="M480.207,149c2.021-2.536,2.377-6.155,0.611-9.099c-3.258-5.43,4.003-18.457,11.691-32.248
		c4.033-7.235,8.604-15.435,12.705-24.267c9.659-20.804,9.033-42.397-1.719-59.242C493.708,8.81,477.111,0.017,457.958,0.017
		c-28.381,0-41.505,21.828-53.084,41.087c-6.384,10.618-11.72,18.927-17.781,24.246C349.292,48.777,303.965,40.017,256,40.017
		c-47.41,0-92.229,8.573-129.765,24.775c-5.804-5.335-10.989-13.437-17.152-23.687C97.504,21.845,84.381,0.017,56,0.017
		c-19.154,0-35.751,8.794-45.538,24.127C-0.289,40.989-0.915,62.582,8.744,83.386c4.101,8.832,8.671,17.032,12.705,24.267
		c7.688,13.792,14.95,26.818,11.691,32.248c-1.378,2.297-1.462,5.005-0.476,7.29c-7.698,15.82-13.428,32.579-17.479,46.674
		C5.535,227.45,0,264.683,0,296.017c0,67.269,26.187,123.176,75.728,161.679c22.907,17.803,50.316,31.514,81.464,40.751
		c30.36,9.004,63.604,13.569,98.808,13.569s68.448-4.565,98.808-13.569c31.148-9.238,58.557-22.949,81.464-40.751
		C485.813,419.193,512,363.285,512,296.017c0-31.329-5.533-68.558-15.181-102.14C492.923,180.314,487.47,164.285,480.207,149z
		 M426.454,445.063C384.174,477.921,323.64,496.017,256,496.017s-128.174-18.096-170.454-50.954
		C40.049,409.703,16,358.163,16,296.017c0-29.901,5.308-65.524,14.563-97.733c10.118-35.212,23.978-62.704,39.027-77.412
		c3.16-3.088,3.218-8.153,0.129-11.313c-3.088-3.161-8.153-3.218-11.313-0.13c-4.093,4-7.902,8.534-11.441,13.435
		c-2.717-7.169-6.994-14.843-11.542-23.002c-4.088-7.334-8.316-14.918-12.168-23.214c-7.312-15.749-7.059-31.749,0.694-43.896
		C30.737,22.116,42.419,16.017,56,16.017c19.331,0,28.618,15.446,39.371,33.332C106.269,67.473,118.62,88.017,144,88.017
		c4.418,0,8-3.582,8-8c0-2.809-1.45-5.275-3.64-6.702C180.46,61.978,217.266,56.017,256,56.017c39.263,0,76.55,6.121,108.956,17.762
		c-1.826,1.466-2.998,3.714-2.998,6.238c0,4.418,3.582,8,8,8c25.38,0,37.731-20.543,48.628-38.668
		c10.753-17.885,20.04-33.332,39.372-33.332c13.581,0,25.262,6.1,32.05,16.735c7.753,12.148,8.006,28.147,0.694,43.896
		c-3.852,8.296-8.08,15.88-12.168,23.214c-4.939,8.86-9.556,17.147-12.205,24.837c-3.896-5.598-8.126-10.763-12.718-15.252
		c-3.159-3.088-8.223-3.031-11.313,0.128c-3.088,3.159-3.031,8.224,0.128,11.313c15.044,14.707,28.9,42.197,39.015,77.406
		C490.693,230.501,496,266.119,496,296.017C496,358.163,471.951,409.703,426.454,445.063z"/>
	<path d="M460.111,63.008c3.736,2.083,8.48,0.853,10.723-2.832c2.297-3.774,1.1-8.696-2.674-10.993
		c-3.828-2.33-11.636-4.955-20.925,3.646c-4.464,4.133-8.72,10.215-13.227,16.654c-8.076,11.54-17.23,24.62-27.577,26.689
		c-4.333,0.866-7.142,5.081-6.276,9.414c0.761,3.803,4.101,6.433,7.836,6.433c0.52,0,1.048-0.051,1.577-0.157
		c16.638-3.328,28.232-19.893,37.548-33.204C450.894,73.261,457.114,64.373,460.111,63.008z"/>
	<path d="M105.569,96.172c-10.346-2.069-19.5-15.149-27.577-26.689c-4.507-6.439-8.763-12.521-13.227-16.654
		c-9.29-8.6-17.097-5.976-20.925-3.646c-3.774,2.297-4.941,7.202-2.644,10.976c2.231,3.665,6.965,4.883,10.692,2.848
		c2.996,1.364,9.217,10.252,12.995,15.65c9.316,13.311,20.91,29.876,37.548,33.204c0.53,0.106,1.057,0.157,1.577,0.157
		c3.735,0,7.076-2.63,7.836-6.433C112.711,101.253,109.901,97.038,105.569,96.172z"/>
	<path d="M311.688,277.8c-0.362-1.26-1.04-2.449-2.033-3.442c-3.124-3.123-8.189-3.123-11.313,0.002
		c-4.095,4.096-1.727,9.016-0.949,10.632c0.461,0.959,1.159,2.338,2.041,4.081C306.5,303.034,328,345.517,328,376.017
		c0,18.545-3.014,30.371-9.214,36.151c-7.657,7.138-21.662,6.157-39.391,4.913c-4.991-0.35-10.112-0.694-15.403-0.893
		c0.001-0.058,0.009-0.114,0.009-0.172v-15.974c1.755,0.009,3.444,0.016,5.05,0.016c14.692,0,23.311-0.609,29.234-6.504
		c5.066-5.042,5.716-12.021,5.716-17.538c0-22.056-21.533-40-48-40s-48,17.944-48,40c0,5.517,0.649,12.497,5.716,17.538
		c6.57,6.539,16.466,6.574,34.284,6.488v15.974c0,0.059,0.008,0.116,0.009,0.175c-5.378,0.206-10.579,0.567-15.648,0.934
		c-17.614,1.273-31.527,2.28-39.137-4.801c-6.207-5.774-9.224-17.651-9.224-36.308c0-21.364,10.623-53.319,29.912-89.979
		c1.562-2.969,2.088-3.969,2.088-6.021c0-4.418-3.582-8-8-8c-3.336,0-6.195,2.042-7.396,4.943c-0.171,0.339-0.462,0.887-0.852,1.628
		C178.98,318.067,168,351.758,168,376.017c0,23.671,4.552,38.93,14.326,48.022c0.564,0.525,1.142,1.021,1.73,1.495
		c0.57,12.995,8.393,26.405,21.701,37.02c14.116,11.261,31.96,17.462,50.244,17.462c39.843,0,70.879-29.061,71.949-54.641
		c0.593-0.479,1.178-0.975,1.748-1.505c9.758-9.098,14.303-24.304,14.303-47.854c0-34.318-22.006-77.799-30.29-94.167
		C312.9,280.248,312.066,278.601,311.688,277.8z M309.676,285.654c0.667-0.672,1.191-1.433,1.571-2.245
		C310.886,284.187,310.375,284.95,309.676,285.654z M225.002,382.214c-0.103-0.102-1.002-1.143-1.002-6.197
		c0-13.234,14.355-24,32-24s32,10.766,32,24c0,5.054-0.899,6.095-1.002,6.197c-1.94,1.931-12.943,1.877-23.588,1.826
		c-2.319-0.011-4.786-0.023-7.41-0.023s-5.091,0.012-7.41,0.023C237.945,384.091,226.942,384.145,225.002,382.214z M256,464.017
		c-26.754,0-47.409-16.204-53.87-30.92c4.021,0.656,8.251,0.907,12.635,0.907c6.022,0,12.329-0.456,18.749-0.92
		c7.255-0.524,14.757-1.067,22.485-1.067c7.654,0,15.087,0.521,22.275,1.025c11.344,0.795,22.326,1.562,32.036-0.128
		C303.271,451.39,275.548,464.017,256,464.017z"/>
	<path d="M264,440.017h-16c-4.418,0-8,3.582-8,8s3.582,8,8,8h16c4.418,0,8-3.582,8-8S268.418,440.017,264,440.017z"/>
</g>
<g>
</g>
<g>
</g>
<g>
</g>
<g>
</g>
<g>
</g>
<g>
</g>
<g>
</g>
<g>
</g>
<g>
</g>
<g>
</g>
<g>
</g>
<g>
</g>
<g>
</g>
<g>
</g>
<g>
</g>
</svg>
